<?xml version="1.0" encoding="UTF-8" standalone="no"?>
<!-- Created with Inkscape (http://www.inkscape.org/) -->

<svg
   xmlns:dc="http://purl.org/dc/elements/1.1/"
   xmlns:cc="http://creativecommons.org/ns#"
   xmlns:rdf="http://www.w3.org/1999/02/22-rdf-syntax-ns#"
   xmlns:svg="http://www.w3.org/2000/svg"
   xmlns="http://www.w3.org/2000/svg"
   xmlns:sodipodi="http://sodipodi.sourceforge.net/DTD/sodipodi-0.dtd"
   xmlns:inkscape="http://www.inkscape.org/namespaces/inkscape"
   width="176.81757mm"
   height="174.87883mm"
   viewBox="0 0 176.81757 174.87883"
   version="1.1"
   id="svg8"
   sodipodi:docname="SettingsSymbol.svg"
   inkscape:version="0.92.4 (5da689c313, 2019-01-14)">
  <defs
     id="defs2" />
  <sodipodi:namedview
     id="base"
     pagecolor="#ffffff"
     bordercolor="#666666"
     borderopacity="1.0"
     inkscape:pageopacity="0.0"
     inkscape:pageshadow="2"
     inkscape:zoom="0.7"
     inkscape:cx="448.60458"
     inkscape:cy="334.76668"
     inkscape:document-units="mm"
     inkscape:current-layer="layer1"
     showgrid="false"
     inkscape:window-width="1920"
     inkscape:window-height="1018"
     inkscape:window-x="-8"
     inkscape:window-y="-8"
     inkscape:window-maximized="1"
     inkscape:snap-page="false"
     inkscape:snap-bbox="false"
     inkscape:bbox-paths="false"
     inkscape:bbox-nodes="false"
     inkscape:snap-bbox-edge-midpoints="false"
     inkscape:snap-bbox-midpoints="false"
     inkscape:object-paths="false"
     inkscape:snap-intersection-paths="false"
     inkscape:snap-smooth-nodes="false"
     inkscape:snap-midpoints="false"
     inkscape:snap-object-midpoints="false"
     inkscape:snap-center="false"
     inkscape:snap-text-baseline="false"
     inkscape:object-nodes="false"
     inkscape:snap-to-guides="false"
     inkscape:snap-grids="false"
     inkscape:snap-others="false"
     inkscape:snap-nodes="false"
     inkscape:snap-global="false"
     fit-margin-top="0"
     fit-margin-left="0"
     fit-margin-right="0"
     fit-margin-bottom="0" />
  <metadata
     id="metadata5">
    <rdf:RDF>
      <cc:Work
         rdf:about="">
        <dc:format>image/svg+xml</dc:format>
        <dc:type
           rdf:resource="http://purl.org/dc/dcmitype/StillImage" />
        <dc:title></dc:title>
      </cc:Work>
    </rdf:RDF>
  </metadata>
  <g
     inkscape:label="Layer 1"
     inkscape:groupmode="layer"
     id="layer1"
     transform="translate(-16.590925,-61.060803)">
    <g
       id="g6437">
      <path
         id="path5831"
         transform="scale(0.26458333)"
         d="m 485.30859,372.21875 c -44.91848,0.0637 -52.34765,100.28231 -117.38086,133.03125 -76.36926,38.45747 -180.18887,-42.30592 -185.06835,43.06055 -4.87949,85.36646 107.46724,16.96015 178.95703,63.86914 71.48978,46.90899 53.4569,177.20161 129.82617,138.74414 76.36927,-38.45747 -39.0455,-101.54956 -34.16602,-186.91602 4.87949,-85.36646 126.73197,-134.89569 55.24219,-181.80469 -10.61176,-6.96305 -19.58033,-9.99548 -27.41016,-9.98437 z m -88.45898,156.18359 a 32.857145,32.857145 0 0 1 32.85742,32.85743 32.857145,32.857145 0 0 1 -32.85742,32.85742 32.857145,32.857145 0 0 1 -32.85547,-32.85742 32.857145,32.857145 0 0 1 32.85547,-32.85743 z"
         style="fill:#898989;fill-opacity:1;fill-rule:nonzero;stroke:#343434;stroke-width:11.38015747;stroke-miterlimit:4;stroke-dasharray:none;stroke-opacity:1"
         inkscape:connector-curvature="0" />
      <path
         id="path5747"
         transform="scale(0.26458333)"
         d="m 497.23047,236.48828 c -50.39131,-1.51743 -19.67804,84.90556 -108.9668,89.22266 -103.89964,5.02353 -56.79389,-116.2861 -148.22461,-66.67969 -91.43071,49.60641 35.94657,76.24915 -24.90625,160.61328 -60.85281,84.36413 -126.326556,-28.1 -144.548826,74.3125 -18.222269,102.4125 82.025546,19.43646 110.042966,119.61328 28.01743,100.17683 -100.731355,81.24581 -32.02343,159.34571 68.70791,78.09989 66.33698,-52.01136 162.12695,-11.45704 95.78997,40.55433 0.71559,129.4122 104.61523,124.38868 103.89965,-5.02353 0.69624,-84.29594 92.12696,-133.90235 91.43071,-49.60641 101.62569,80.12781 162.47851,-4.23633 60.85282,-84.36413 -65.47031,-53.10117 -47.24805,-155.51367 18.22227,-102.4125 126.00766,-29.4931 97.99024,-129.66992 -28.01742,-100.17682 -82.33505,18.07841 -151.04297,-60.02148 -68.70792,-78.0999 55.50482,-116.90662 -40.28516,-157.46094 -13.47046,-5.70295 -23.88891,-8.30638 -32.13476,-8.55469 z M 396.84961,375.54688 A 185.7124,185.7124 0 0 1 582.5625,561.25977 185.7124,185.7124 0 0 1 396.84961,746.97266 185.7124,185.7124 0 0 1 211.13867,561.25977 185.7124,185.7124 0 0 1 396.84961,375.54688 Z"
         style="fill:#aaaaaa;fill-opacity:1;stroke:#343434;stroke-width:11.38015747;stroke-miterlimit:4;stroke-dasharray:none;stroke-opacity:1"
         inkscape:connector-curvature="0" />
      <path
         id="path1366"
         transform="scale(0.26458333)"
         d="M 396.84961,313.40234 A 247.85716,247.85716 0 0 0 148.99414,561.25977 247.85716,247.85716 0 0 0 396.84961,809.11719 247.85716,247.85716 0 0 0 644.70703,561.25977 247.85716,247.85716 0 0 0 396.84961,313.40234 Z m 0,62.14454 A 185.7124,185.7124 0 0 1 582.5625,561.25977 185.7124,185.7124 0 0 1 396.84961,746.97266 185.7124,185.7124 0 0 1 211.13867,561.25977 185.7124,185.7124 0 0 1 396.84961,375.54688 Z"
         style="fill:#d3d3d3;fill-opacity:1;fill-rule:nonzero;stroke:#343434;stroke-width:11.38015747;stroke-miterlimit:4;stroke-dasharray:none;stroke-opacity:1"
         inkscape:connector-curvature="0" />
    </g>
  </g>
</svg>
